<?xml version="1.0" encoding="UTF-8" standalone="no"?>
<svg
   width="64mm"
   height="64mm"
   version="1.1"
   viewBox="0 0 64 64"
   xml:space="preserve"
   id="svg2"
   sodipodi:docname="peach.svg"
   inkscape:version="1.4.3 (0d15f75042, 2025-12-25)"
   xmlns:inkscape="http://www.inkscape.org/namespaces/inkscape"
   xmlns:sodipodi="http://sodipodi.sourceforge.net/DTD/sodipodi-0.dtd"
   xmlns="http://www.w3.org/2000/svg"
   xmlns:svg="http://www.w3.org/2000/svg"><defs
     id="defs2" /><sodipodi:namedview
     id="namedview2"
     pagecolor="#ffffff"
     bordercolor="#000000"
     borderopacity="0.25"
     inkscape:showpageshadow="2"
     inkscape:pageopacity="0.0"
     inkscape:pagecheckerboard="0"
     inkscape:deskcolor="#d1d1d1"
     inkscape:document-units="mm"
     inkscape:zoom="2.5568829"
     inkscape:cx="122.02358"
     inkscape:cy="121.82803"
     inkscape:window-width="1497"
     inkscape:window-height="891"
     inkscape:window-x="0"
     inkscape:window-y="0"
     inkscape:window-maximized="1"
     inkscape:current-layer="svg2" /><path
     id="path2"
     style="opacity:1;fill:#ff00ff;stroke-width:0.319823"
     d="m 42,21.529167 a 21,21 0 0 1 -21,21 21,21 0 0 1 -21,-21 A 21,21 0 0 1 21,0.52916718 21,21 0 0 1 42,21.529167 Z" /><path
     id="circle2"
     style="opacity:1;fill:#00ffff;stroke-width:0.319823"
     d="m 64,21.529167 a 21,21 0 0 1 -21,21 21,21 0 0 1 -21,-21 A 21,21 0 0 1 43,0.52916718 21,21 0 0 1 64,21.529167 Z" /><path
     id="circle4"
     style="opacity:1;fill:#00ffff;stroke-width:0.319823"
     d="M 32.000114 3.6767782 A 21 21 0 0 0 22.000208 21.528918 A 21 21 0 0 0 32.000114 39.381576 A 21 21 0 0 0 42.00002 21.528918 A 21 21 0 0 0 32.000114 3.6767782 z " /><path
     id="circle3"
     style="opacity:1;fill:#ffff00;stroke-width:0.319823"
     d="m 53,42.470833 a 21,21 0 0 1 -21,21 21,21 0 0 1 -21,-21 21,21 0 0 1 21,-21 21,21 0 0 1 21,21 z" /></svg>
