<?xml version="1.0" encoding="UTF-8"?>
<svg width="64mm" height="64mm" version="1.1" viewBox="0 0 64 64" xml:space="preserve" xmlns="http://www.w3.org/2000/svg"><path d="m4.5089 7.5081c3.6469 7.9618 11.821 23.457 11.821 23.457-6.5197-4.6133-12.601-2.7591-13.243 0.91745-0.64203 3.6765 3.7773 3.7131 5.6776 5.3575 4.2236 2.7468 6.6579 7.3751 10.325 10.741 11.404 13.548 12.837 1.029 16.17 11.449s28.216-1.2961 25.514-11.301c-2.3034-8.529-5.6089-3.4923-6.9868-15.773-4.1725-20.199-15.883-13.969-30.446-10.267-3.357-6.6724-6.8239-12.935-11.1-19.095-4.8904-5.9736-10.054 0.09812-7.7308 4.5141z" fill="#fdd252" stroke-width="1.3836"/></svg>
